<?xml version="1.0" ?>
<svg viewBox="0 0 500 500" xmlns="http://www.w3.org/2000/svg">
  <!-- Background -->
  <rect fill="#ffffff" height="512" width="512"/>
  <g class="svg-content" data-height="200" data-view-box="0 0 200 200" data-width="200" transform="translate(0, 0) scale(2.5)">
    <defs color="rgb(2, 8, 23)" fill="#a4bcfc" stroke="none">
      <clipPath id="svg1-clip-path-background-color-57">
        <rect color="rgb(2, 8, 23)" fill="#a4bcfc" height="200" stroke="none" width="200" x="0" y="0"/>
      </clipPath>
      <clipPath id="svg1-clip-path-dot-color-57">
        <rect color="rgb(2, 8, 23)" fill="#a4bcfc" height="8" stroke="none" transform="matrix(1, 0, 0, 1, 0, 0)" width="8" x="64" y="0"/>
        <rect color="rgb(2, 8, 23)" fill="#a4bcfc" height="8" stroke="none" transform="matrix(1, 0, 0, 1, 0, 0)" width="8" x="72" y="0"/>
        <rect color="rgb(2, 8, 23)" fill="#a4bcfc" height="8" stroke="none" transform="matrix(1, 0, 0, 1, 0, 0)" width="8" x="120" y="0"/>
        <rect color="rgb(2, 8, 23)" fill="#a4bcfc" height="8" stroke="none" transform="matrix(1, 0, 0, 1, 0, 0)" width="8" x="128" y="0"/>
        <rect color="rgb(2, 8, 23)" fill="#a4bcfc" height="8" stroke="none" transform="matrix(1, 0, 0, 1, 0, 0)" width="8" x="72" y="8"/>
        <rect color="rgb(2, 8, 23)" fill="#a4bcfc" height="8" stroke="none" transform="matrix(1, 0, 0, 1, 0, 0)" width="8" x="88" y="8"/>
        <rect color="rgb(2, 8, 23)" fill="#a4bcfc" height="8" stroke="none" transform="matrix(1, 0, 0, 1, 0, 0)" width="8" x="96" y="8"/>
        <rect color="rgb(2, 8, 23)" fill="#a4bcfc" height="8" stroke="none" transform="matrix(1, 0, 0, 1, 0, 0)" width="8" x="72" y="16"/>
        <rect color="rgb(2, 8, 23)" fill="#a4bcfc" height="8" stroke="none" transform="matrix(1, 0, 0, 1, 0, 0)" width="8" x="80" y="16"/>
        <rect color="rgb(2, 8, 23)" fill="#a4bcfc" height="8" stroke="none" transform="matrix(1, 0, 0, 1, 0, 0)" width="8" x="104" y="16"/>
        <rect color="rgb(2, 8, 23)" fill="#a4bcfc" height="8" stroke="none" transform="matrix(1, 0, 0, 1, 0, 0)" width="8" x="112" y="16"/>
        <rect color="rgb(2, 8, 23)" fill="#a4bcfc" height="8" stroke="none" transform="matrix(1, 0, 0, 1, 0, 0)" width="8" x="128" y="16"/>
        <rect color="rgb(2, 8, 23)" fill="#a4bcfc" height="8" stroke="none" transform="matrix(1, 0, 0, 1, 0, 0)" width="8" x="64" y="24"/>
        <rect color="rgb(2, 8, 23)" fill="#a4bcfc" height="8" stroke="none" transform="matrix(1, 0, 0, 1, 0, 0)" width="8" x="72" y="24"/>
        <rect color="rgb(2, 8, 23)" fill="#a4bcfc" height="8" stroke="none" transform="matrix(1, 0, 0, 1, 0, 0)" width="8" x="80" y="24"/>
        <rect color="rgb(2, 8, 23)" fill="#a4bcfc" height="8" stroke="none" transform="matrix(1, 0, 0, 1, 0, 0)" width="8" x="96" y="24"/>
        <rect color="rgb(2, 8, 23)" fill="#a4bcfc" height="8" stroke="none" transform="matrix(1, 0, 0, 1, 0, 0)" width="8" x="104" y="24"/>
        <rect color="rgb(2, 8, 23)" fill="#a4bcfc" height="8" stroke="none" transform="matrix(1, 0, 0, 1, 0, 0)" width="8" x="112" y="24"/>
        <rect color="rgb(2, 8, 23)" fill="#a4bcfc" height="8" stroke="none" transform="matrix(1, 0, 0, 1, 0, 0)" width="8" x="80" y="32"/>
        <rect color="rgb(2, 8, 23)" fill="#a4bcfc" height="8" stroke="none" transform="matrix(1, 0, 0, 1, 0, 0)" width="8" x="88" y="32"/>
        <rect color="rgb(2, 8, 23)" fill="#a4bcfc" height="8" stroke="none" transform="matrix(1, 0, 0, 1, 0, 0)" width="8" x="96" y="32"/>
        <rect color="rgb(2, 8, 23)" fill="#a4bcfc" height="8" stroke="none" transform="matrix(1, 0, 0, 1, 0, 0)" width="8" x="112" y="32"/>
        <rect color="rgb(2, 8, 23)" fill="#a4bcfc" height="8" stroke="none" transform="matrix(1, 0, 0, 1, 0, 0)" width="8" x="120" y="32"/>
        <rect color="rgb(2, 8, 23)" fill="#a4bcfc" height="8" stroke="none" transform="matrix(1, 0, 0, 1, 0, 0)" width="8" x="72" y="40"/>
        <rect color="rgb(2, 8, 23)" fill="#a4bcfc" height="8" stroke="none" transform="matrix(1, 0, 0, 1, 0, 0)" width="8" x="80" y="40"/>
        <rect color="rgb(2, 8, 23)" fill="#a4bcfc" height="8" stroke="none" transform="matrix(1, 0, 0, 1, 0, 0)" width="8" x="104" y="40"/>
        <rect color="rgb(2, 8, 23)" fill="#a4bcfc" height="8" stroke="none" transform="matrix(1, 0, 0, 1, 0, 0)" width="8" x="120" y="40"/>
        <rect color="rgb(2, 8, 23)" fill="#a4bcfc" height="8" stroke="none" transform="matrix(1, 0, 0, 1, 0, 0)" width="8" x="64" y="48"/>
        <rect color="rgb(2, 8, 23)" fill="#a4bcfc" height="8" stroke="none" transform="matrix(1, 0, 0, 1, 0, 0)" width="8" x="80" y="48"/>
        <rect color="rgb(2, 8, 23)" fill="#a4bcfc" height="8" stroke="none" transform="matrix(1, 0, 0, 1, 0, 0)" width="8" x="96" y="48"/>
        <rect color="rgb(2, 8, 23)" fill="#a4bcfc" height="8" stroke="none" transform="matrix(1, 0, 0, 1, 0, 0)" width="8" x="112" y="48"/>
        <rect color="rgb(2, 8, 23)" fill="#a4bcfc" height="8" stroke="none" transform="matrix(1, 0, 0, 1, 0, 0)" width="8" x="128" y="48"/>
        <rect color="rgb(2, 8, 23)" fill="#a4bcfc" height="8" stroke="none" transform="matrix(1, 0, 0, 1, 0, 0)" width="8" x="72" y="56"/>
        <rect color="rgb(2, 8, 23)" fill="#a4bcfc" height="8" stroke="none" transform="matrix(1, 0, 0, 1, 0, 0)" width="8" x="88" y="56"/>
        <rect color="rgb(2, 8, 23)" fill="#a4bcfc" height="8" stroke="none" transform="matrix(1, 0, 0, 1, 0, 0)" width="8" x="120" y="56"/>
        <rect color="rgb(2, 8, 23)" fill="#a4bcfc" height="8" stroke="none" transform="matrix(1, 0, 0, 1, 0, 0)" width="8" x="16" y="64"/>
        <rect color="rgb(2, 8, 23)" fill="#a4bcfc" height="8" stroke="none" transform="matrix(1, 0, 0, 1, 0, 0)" width="8" x="32" y="64"/>
        <rect color="rgb(2, 8, 23)" fill="#a4bcfc" height="8" stroke="none" transform="matrix(1, 0, 0, 1, 0, 0)" width="8" x="40" y="64"/>
        <rect color="rgb(2, 8, 23)" fill="#a4bcfc" height="8" stroke="none" transform="matrix(1, 0, 0, 1, 0, 0)" width="8" x="48" y="64"/>
        <rect color="rgb(2, 8, 23)" fill="#a4bcfc" height="8" stroke="none" transform="matrix(1, 0, 0, 1, 0, 0)" width="8" x="64" y="64"/>
        <rect color="rgb(2, 8, 23)" fill="#a4bcfc" height="8" stroke="none" transform="matrix(1, 0, 0, 1, 0, 0)" width="8" x="72" y="64"/>
        <rect color="rgb(2, 8, 23)" fill="#a4bcfc" height="8" stroke="none" transform="matrix(1, 0, 0, 1, 0, 0)" width="8" x="88" y="64"/>
        <rect color="rgb(2, 8, 23)" fill="#a4bcfc" height="8" stroke="none" transform="matrix(1, 0, 0, 1, 0, 0)" width="8" x="96" y="64"/>
        <rect color="rgb(2, 8, 23)" fill="#a4bcfc" height="8" stroke="none" transform="matrix(1, 0, 0, 1, 0, 0)" width="8" x="104" y="64"/>
        <rect color="rgb(2, 8, 23)" fill="#a4bcfc" height="8" stroke="none" transform="matrix(1, 0, 0, 1, 0, 0)" width="8" x="112" y="64"/>
        <rect color="rgb(2, 8, 23)" fill="#a4bcfc" height="8" stroke="none" transform="matrix(1, 0, 0, 1, 0, 0)" width="8" x="120" y="64"/>
        <rect color="rgb(2, 8, 23)" fill="#a4bcfc" height="8" stroke="none" transform="matrix(1, 0, 0, 1, 0, 0)" width="8" x="136" y="64"/>
        <rect color="rgb(2, 8, 23)" fill="#a4bcfc" height="8" stroke="none" transform="matrix(1, 0, 0, 1, 0, 0)" width="8" x="168" y="64"/>
        <rect color="rgb(2, 8, 23)" fill="#a4bcfc" height="8" stroke="none" transform="matrix(1, 0, 0, 1, 0, 0)" width="8" x="192" y="64"/>
        <rect color="rgb(2, 8, 23)" fill="#a4bcfc" height="8" stroke="none" transform="matrix(1, 0, 0, 1, 0, 0)" width="8" x="16" y="72"/>
        <rect color="rgb(2, 8, 23)" fill="#a4bcfc" height="8" stroke="none" transform="matrix(1, 0, 0, 1, 0, 0)" width="8" x="24" y="72"/>
        <rect color="rgb(2, 8, 23)" fill="#a4bcfc" height="8" stroke="none" transform="matrix(1, 0, 0, 1, 0, 0)" width="8" x="32" y="72"/>
        <rect color="rgb(2, 8, 23)" fill="#a4bcfc" height="8" stroke="none" transform="matrix(1, 0, 0, 1, 0, 0)" width="8" x="56" y="72"/>
        <rect color="rgb(2, 8, 23)" fill="#a4bcfc" height="8" stroke="none" transform="matrix(1, 0, 0, 1, 0, 0)" width="8" x="64" y="72"/>
        <rect color="rgb(2, 8, 23)" fill="#a4bcfc" height="8" stroke="none" transform="matrix(1, 0, 0, 1, 0, 0)" width="8" x="88" y="72"/>
        <rect color="rgb(2, 8, 23)" fill="#a4bcfc" height="8" stroke="none" transform="matrix(1, 0, 0, 1, 0, 0)" width="8" x="96" y="72"/>
        <rect color="rgb(2, 8, 23)" fill="#a4bcfc" height="8" stroke="none" transform="matrix(1, 0, 0, 1, 0, 0)" width="8" x="112" y="72"/>
        <rect color="rgb(2, 8, 23)" fill="#a4bcfc" height="8" stroke="none" transform="matrix(1, 0, 0, 1, 0, 0)" width="8" x="120" y="72"/>
        <rect color="rgb(2, 8, 23)" fill="#a4bcfc" height="8" stroke="none" transform="matrix(1, 0, 0, 1, 0, 0)" width="8" x="128" y="72"/>
        <rect color="rgb(2, 8, 23)" fill="#a4bcfc" height="8" stroke="none" transform="matrix(1, 0, 0, 1, 0, 0)" width="8" x="144" y="72"/>
        <rect color="rgb(2, 8, 23)" fill="#a4bcfc" height="8" stroke="none" transform="matrix(1, 0, 0, 1, 0, 0)" width="8" x="168" y="72"/>
        <rect color="rgb(2, 8, 23)" fill="#a4bcfc" height="8" stroke="none" transform="matrix(1, 0, 0, 1, 0, 0)" width="8" x="184" y="72"/>
        <rect color="rgb(2, 8, 23)" fill="#a4bcfc" height="8" stroke="none" transform="matrix(1, 0, 0, 1, 0, 0)" width="8" x="192" y="72"/>
        <rect color="rgb(2, 8, 23)" fill="#a4bcfc" height="8" stroke="none" transform="matrix(1, 0, 0, 1, 0, 0)" width="8" x="24" y="80"/>
        <rect color="rgb(2, 8, 23)" fill="#a4bcfc" height="8" stroke="none" transform="matrix(1, 0, 0, 1, 0, 0)" width="8" x="40" y="80"/>
        <rect color="rgb(2, 8, 23)" fill="#a4bcfc" height="8" stroke="none" transform="matrix(1, 0, 0, 1, 0, 0)" width="8" x="48" y="80"/>
        <rect color="rgb(2, 8, 23)" fill="#a4bcfc" height="8" stroke="none" transform="matrix(1, 0, 0, 1, 0, 0)" width="8" x="64" y="80"/>
        <rect color="rgb(2, 8, 23)" fill="#a4bcfc" height="8" stroke="none" transform="matrix(1, 0, 0, 1, 0, 0)" width="8" x="72" y="80"/>
        <rect color="rgb(2, 8, 23)" fill="#a4bcfc" height="8" stroke="none" transform="matrix(1, 0, 0, 1, 0, 0)" width="8" x="112" y="80"/>
        <rect color="rgb(2, 8, 23)" fill="#a4bcfc" height="8" stroke="none" transform="matrix(1, 0, 0, 1, 0, 0)" width="8" x="144" y="80"/>
        <rect color="rgb(2, 8, 23)" fill="#a4bcfc" height="8" stroke="none" transform="matrix(1, 0, 0, 1, 0, 0)" width="8" x="152" y="80"/>
        <rect color="rgb(2, 8, 23)" fill="#a4bcfc" height="8" stroke="none" transform="matrix(1, 0, 0, 1, 0, 0)" width="8" x="160" y="80"/>
        <rect color="rgb(2, 8, 23)" fill="#a4bcfc" height="8" stroke="none" transform="matrix(1, 0, 0, 1, 0, 0)" width="8" x="176" y="80"/>
        <rect color="rgb(2, 8, 23)" fill="#a4bcfc" height="8" stroke="none" transform="matrix(1, 0, 0, 1, 0, 0)" width="8" x="192" y="80"/>
        <rect color="rgb(2, 8, 23)" fill="#a4bcfc" height="8" stroke="none" transform="matrix(1, 0, 0, 1, 0, 0)" width="8" x="8" y="88"/>
        <rect color="rgb(2, 8, 23)" fill="#a4bcfc" height="8" stroke="none" transform="matrix(1, 0, 0, 1, 0, 0)" width="8" x="16" y="88"/>
        <rect color="rgb(2, 8, 23)" fill="#a4bcfc" height="8" stroke="none" transform="matrix(1, 0, 0, 1, 0, 0)" width="8" x="32" y="88"/>
        <rect color="rgb(2, 8, 23)" fill="#a4bcfc" height="8" stroke="none" transform="matrix(1, 0, 0, 1, 0, 0)" width="8" x="40" y="88"/>
        <rect color="rgb(2, 8, 23)" fill="#a4bcfc" height="8" stroke="none" transform="matrix(1, 0, 0, 1, 0, 0)" width="8" x="96" y="88"/>
        <rect color="rgb(2, 8, 23)" fill="#a4bcfc" height="8" stroke="none" transform="matrix(1, 0, 0, 1, 0, 0)" width="8" x="104" y="88"/>
        <rect color="rgb(2, 8, 23)" fill="#a4bcfc" height="8" stroke="none" transform="matrix(1, 0, 0, 1, 0, 0)" width="8" x="112" y="88"/>
        <rect color="rgb(2, 8, 23)" fill="#a4bcfc" height="8" stroke="none" transform="matrix(1, 0, 0, 1, 0, 0)" width="8" x="128" y="88"/>
        <rect color="rgb(2, 8, 23)" fill="#a4bcfc" height="8" stroke="none" transform="matrix(1, 0, 0, 1, 0, 0)" width="8" x="144" y="88"/>
        <rect color="rgb(2, 8, 23)" fill="#a4bcfc" height="8" stroke="none" transform="matrix(1, 0, 0, 1, 0, 0)" width="8" x="184" y="88"/>
        <rect color="rgb(2, 8, 23)" fill="#a4bcfc" height="8" stroke="none" transform="matrix(1, 0, 0, 1, 0, 0)" width="8" x="192" y="88"/>
        <rect color="rgb(2, 8, 23)" fill="#a4bcfc" height="8" stroke="none" transform="matrix(1, 0, 0, 1, 0, 0)" width="8" x="16" y="96"/>
        <rect color="rgb(2, 8, 23)" fill="#a4bcfc" height="8" stroke="none" transform="matrix(1, 0, 0, 1, 0, 0)" width="8" x="32" y="96"/>
        <rect color="rgb(2, 8, 23)" fill="#a4bcfc" height="8" stroke="none" transform="matrix(1, 0, 0, 1, 0, 0)" width="8" x="40" y="96"/>
        <rect color="rgb(2, 8, 23)" fill="#a4bcfc" height="8" stroke="none" transform="matrix(1, 0, 0, 1, 0, 0)" width="8" x="48" y="96"/>
        <rect color="rgb(2, 8, 23)" fill="#a4bcfc" height="8" stroke="none" transform="matrix(1, 0, 0, 1, 0, 0)" width="8" x="72" y="96"/>
        <rect color="rgb(2, 8, 23)" fill="#a4bcfc" height="8" stroke="none" transform="matrix(1, 0, 0, 1, 0, 0)" width="8" x="80" y="96"/>
        <rect color="rgb(2, 8, 23)" fill="#a4bcfc" height="8" stroke="none" transform="matrix(1, 0, 0, 1, 0, 0)" width="8" x="104" y="96"/>
        <rect color="rgb(2, 8, 23)" fill="#a4bcfc" height="8" stroke="none" transform="matrix(1, 0, 0, 1, 0, 0)" width="8" x="136" y="96"/>
        <rect color="rgb(2, 8, 23)" fill="#a4bcfc" height="8" stroke="none" transform="matrix(1, 0, 0, 1, 0, 0)" width="8" x="144" y="96"/>
        <rect color="rgb(2, 8, 23)" fill="#a4bcfc" height="8" stroke="none" transform="matrix(1, 0, 0, 1, 0, 0)" width="8" x="176" y="96"/>
        <rect color="rgb(2, 8, 23)" fill="#a4bcfc" height="8" stroke="none" transform="matrix(1, 0, 0, 1, 0, 0)" width="8" x="192" y="96"/>
        <rect color="rgb(2, 8, 23)" fill="#a4bcfc" height="8" stroke="none" transform="matrix(1, 0, 0, 1, 0, 0)" width="8" x="56" y="104"/>
        <rect color="rgb(2, 8, 23)" fill="#a4bcfc" height="8" stroke="none" transform="matrix(1, 0, 0, 1, 0, 0)" width="8" x="96" y="104"/>
        <rect color="rgb(2, 8, 23)" fill="#a4bcfc" height="8" stroke="none" transform="matrix(1, 0, 0, 1, 0, 0)" width="8" x="120" y="104"/>
        <rect color="rgb(2, 8, 23)" fill="#a4bcfc" height="8" stroke="none" transform="matrix(1, 0, 0, 1, 0, 0)" width="8" x="144" y="104"/>
        <rect color="rgb(2, 8, 23)" fill="#a4bcfc" height="8" stroke="none" transform="matrix(1, 0, 0, 1, 0, 0)" width="8" x="168" y="104"/>
        <rect color="rgb(2, 8, 23)" fill="#a4bcfc" height="8" stroke="none" transform="matrix(1, 0, 0, 1, 0, 0)" width="8" x="0" y="112"/>
        <rect color="rgb(2, 8, 23)" fill="#a4bcfc" height="8" stroke="none" transform="matrix(1, 0, 0, 1, 0, 0)" width="8" x="24" y="112"/>
        <rect color="rgb(2, 8, 23)" fill="#a4bcfc" height="8" stroke="none" transform="matrix(1, 0, 0, 1, 0, 0)" width="8" x="32" y="112"/>
        <rect color="rgb(2, 8, 23)" fill="#a4bcfc" height="8" stroke="none" transform="matrix(1, 0, 0, 1, 0, 0)" width="8" x="40" y="112"/>
        <rect color="rgb(2, 8, 23)" fill="#a4bcfc" height="8" stroke="none" transform="matrix(1, 0, 0, 1, 0, 0)" width="8" x="48" y="112"/>
        <rect color="rgb(2, 8, 23)" fill="#a4bcfc" height="8" stroke="none" transform="matrix(1, 0, 0, 1, 0, 0)" width="8" x="64" y="112"/>
        <rect color="rgb(2, 8, 23)" fill="#a4bcfc" height="8" stroke="none" transform="matrix(1, 0, 0, 1, 0, 0)" width="8" x="136" y="112"/>
        <rect color="rgb(2, 8, 23)" fill="#a4bcfc" height="8" stroke="none" transform="matrix(1, 0, 0, 1, 0, 0)" width="8" x="144" y="112"/>
        <rect color="rgb(2, 8, 23)" fill="#a4bcfc" height="8" stroke="none" transform="matrix(1, 0, 0, 1, 0, 0)" width="8" x="152" y="112"/>
        <rect color="rgb(2, 8, 23)" fill="#a4bcfc" height="8" stroke="none" transform="matrix(1, 0, 0, 1, 0, 0)" width="8" x="160" y="112"/>
        <rect color="rgb(2, 8, 23)" fill="#a4bcfc" height="8" stroke="none" transform="matrix(1, 0, 0, 1, 0, 0)" width="8" x="168" y="112"/>
        <rect color="rgb(2, 8, 23)" fill="#a4bcfc" height="8" stroke="none" transform="matrix(1, 0, 0, 1, 0, 0)" width="8" x="184" y="112"/>
        <rect color="rgb(2, 8, 23)" fill="#a4bcfc" height="8" stroke="none" transform="matrix(1, 0, 0, 1, 0, 0)" width="8" x="192" y="112"/>
        <rect color="rgb(2, 8, 23)" fill="#a4bcfc" height="8" stroke="none" transform="matrix(1, 0, 0, 1, 0, 0)" width="8" x="8" y="120"/>
        <rect color="rgb(2, 8, 23)" fill="#a4bcfc" height="8" stroke="none" transform="matrix(1, 0, 0, 1, 0, 0)" width="8" x="24" y="120"/>
        <rect color="rgb(2, 8, 23)" fill="#a4bcfc" height="8" stroke="none" transform="matrix(1, 0, 0, 1, 0, 0)" width="8" x="40" y="120"/>
        <rect color="rgb(2, 8, 23)" fill="#a4bcfc" height="8" stroke="none" transform="matrix(1, 0, 0, 1, 0, 0)" width="8" x="64" y="120"/>
        <rect color="rgb(2, 8, 23)" fill="#a4bcfc" height="8" stroke="none" transform="matrix(1, 0, 0, 1, 0, 0)" width="8" x="72" y="120"/>
        <rect color="rgb(2, 8, 23)" fill="#a4bcfc" height="8" stroke="none" transform="matrix(1, 0, 0, 1, 0, 0)" width="8" x="80" y="120"/>
        <rect color="rgb(2, 8, 23)" fill="#a4bcfc" height="8" stroke="none" transform="matrix(1, 0, 0, 1, 0, 0)" width="8" x="88" y="120"/>
        <rect color="rgb(2, 8, 23)" fill="#a4bcfc" height="8" stroke="none" transform="matrix(1, 0, 0, 1, 0, 0)" width="8" x="96" y="120"/>
        <rect color="rgb(2, 8, 23)" fill="#a4bcfc" height="8" stroke="none" transform="matrix(1, 0, 0, 1, 0, 0)" width="8" x="104" y="120"/>
        <rect color="rgb(2, 8, 23)" fill="#a4bcfc" height="8" stroke="none" transform="matrix(1, 0, 0, 1, 0, 0)" width="8" x="120" y="120"/>
        <rect color="rgb(2, 8, 23)" fill="#a4bcfc" height="8" stroke="none" transform="matrix(1, 0, 0, 1, 0, 0)" width="8" x="136" y="120"/>
        <rect color="rgb(2, 8, 23)" fill="#a4bcfc" height="8" stroke="none" transform="matrix(1, 0, 0, 1, 0, 0)" width="8" x="0" y="128"/>
        <rect color="rgb(2, 8, 23)" fill="#a4bcfc" height="8" stroke="none" transform="matrix(1, 0, 0, 1, 0, 0)" width="8" x="32" y="128"/>
        <rect color="rgb(2, 8, 23)" fill="#a4bcfc" height="8" stroke="none" transform="matrix(1, 0, 0, 1, 0, 0)" width="8" x="48" y="128"/>
        <rect color="rgb(2, 8, 23)" fill="#a4bcfc" height="8" stroke="none" transform="matrix(1, 0, 0, 1, 0, 0)" width="8" x="56" y="128"/>
        <rect color="rgb(2, 8, 23)" fill="#a4bcfc" height="8" stroke="none" transform="matrix(1, 0, 0, 1, 0, 0)" width="8" x="64" y="128"/>
        <rect color="rgb(2, 8, 23)" fill="#a4bcfc" height="8" stroke="none" transform="matrix(1, 0, 0, 1, 0, 0)" width="8" x="72" y="128"/>
        <rect color="rgb(2, 8, 23)" fill="#a4bcfc" height="8" stroke="none" transform="matrix(1, 0, 0, 1, 0, 0)" width="8" x="88" y="128"/>
        <rect color="rgb(2, 8, 23)" fill="#a4bcfc" height="8" stroke="none" transform="matrix(1, 0, 0, 1, 0, 0)" width="8" x="104" y="128"/>
        <rect color="rgb(2, 8, 23)" fill="#a4bcfc" height="8" stroke="none" transform="matrix(1, 0, 0, 1, 0, 0)" width="8" x="128" y="128"/>
        <rect color="rgb(2, 8, 23)" fill="#a4bcfc" height="8" stroke="none" transform="matrix(1, 0, 0, 1, 0, 0)" width="8" x="136" y="128"/>
        <rect color="rgb(2, 8, 23)" fill="#a4bcfc" height="8" stroke="none" transform="matrix(1, 0, 0, 1, 0, 0)" width="8" x="144" y="128"/>
        <rect color="rgb(2, 8, 23)" fill="#a4bcfc" height="8" stroke="none" transform="matrix(1, 0, 0, 1, 0, 0)" width="8" x="152" y="128"/>
        <rect color="rgb(2, 8, 23)" fill="#a4bcfc" height="8" stroke="none" transform="matrix(1, 0, 0, 1, 0, 0)" width="8" x="160" y="128"/>
        <rect color="rgb(2, 8, 23)" fill="#a4bcfc" height="8" stroke="none" transform="matrix(1, 0, 0, 1, 0, 0)" width="8" x="192" y="128"/>
        <rect color="rgb(2, 8, 23)" fill="#a4bcfc" height="8" stroke="none" transform="matrix(1, 0, 0, 1, 0, 0)" width="8" x="64" y="136"/>
        <rect color="rgb(2, 8, 23)" fill="#a4bcfc" height="8" stroke="none" transform="matrix(1, 0, 0, 1, 0, 0)" width="8" x="72" y="136"/>
        <rect color="rgb(2, 8, 23)" fill="#a4bcfc" height="8" stroke="none" transform="matrix(1, 0, 0, 1, 0, 0)" width="8" x="80" y="136"/>
        <rect color="rgb(2, 8, 23)" fill="#a4bcfc" height="8" stroke="none" transform="matrix(1, 0, 0, 1, 0, 0)" width="8" x="96" y="136"/>
        <rect color="rgb(2, 8, 23)" fill="#a4bcfc" height="8" stroke="none" transform="matrix(1, 0, 0, 1, 0, 0)" width="8" x="112" y="136"/>
        <rect color="rgb(2, 8, 23)" fill="#a4bcfc" height="8" stroke="none" transform="matrix(1, 0, 0, 1, 0, 0)" width="8" x="120" y="136"/>
        <rect color="rgb(2, 8, 23)" fill="#a4bcfc" height="8" stroke="none" transform="matrix(1, 0, 0, 1, 0, 0)" width="8" x="128" y="136"/>
        <rect color="rgb(2, 8, 23)" fill="#a4bcfc" height="8" stroke="none" transform="matrix(1, 0, 0, 1, 0, 0)" width="8" x="160" y="136"/>
        <rect color="rgb(2, 8, 23)" fill="#a4bcfc" height="8" stroke="none" transform="matrix(1, 0, 0, 1, 0, 0)" width="8" x="176" y="136"/>
        <rect color="rgb(2, 8, 23)" fill="#a4bcfc" height="8" stroke="none" transform="matrix(1, 0, 0, 1, 0, 0)" width="8" x="72" y="144"/>
        <rect color="rgb(2, 8, 23)" fill="#a4bcfc" height="8" stroke="none" transform="matrix(1, 0, 0, 1, 0, 0)" width="8" x="128" y="144"/>
        <rect color="rgb(2, 8, 23)" fill="#a4bcfc" height="8" stroke="none" transform="matrix(1, 0, 0, 1, 0, 0)" width="8" x="144" y="144"/>
        <rect color="rgb(2, 8, 23)" fill="#a4bcfc" height="8" stroke="none" transform="matrix(1, 0, 0, 1, 0, 0)" width="8" x="160" y="144"/>
        <rect color="rgb(2, 8, 23)" fill="#a4bcfc" height="8" stroke="none" transform="matrix(1, 0, 0, 1, 0, 0)" width="8" x="168" y="144"/>
        <rect color="rgb(2, 8, 23)" fill="#a4bcfc" height="8" stroke="none" transform="matrix(1, 0, 0, 1, 0, 0)" width="8" x="184" y="144"/>
        <rect color="rgb(2, 8, 23)" fill="#a4bcfc" height="8" stroke="none" transform="matrix(1, 0, 0, 1, 0, 0)" width="8" x="192" y="144"/>
        <rect color="rgb(2, 8, 23)" fill="#a4bcfc" height="8" stroke="none" transform="matrix(1, 0, 0, 1, 0, 0)" width="8" x="64" y="152"/>
        <rect color="rgb(2, 8, 23)" fill="#a4bcfc" height="8" stroke="none" transform="matrix(1, 0, 0, 1, 0, 0)" width="8" x="72" y="152"/>
        <rect color="rgb(2, 8, 23)" fill="#a4bcfc" height="8" stroke="none" transform="matrix(1, 0, 0, 1, 0, 0)" width="8" x="80" y="152"/>
        <rect color="rgb(2, 8, 23)" fill="#a4bcfc" height="8" stroke="none" transform="matrix(1, 0, 0, 1, 0, 0)" width="8" x="112" y="152"/>
        <rect color="rgb(2, 8, 23)" fill="#a4bcfc" height="8" stroke="none" transform="matrix(1, 0, 0, 1, 0, 0)" width="8" x="128" y="152"/>
        <rect color="rgb(2, 8, 23)" fill="#a4bcfc" height="8" stroke="none" transform="matrix(1, 0, 0, 1, 0, 0)" width="8" x="160" y="152"/>
        <rect color="rgb(2, 8, 23)" fill="#a4bcfc" height="8" stroke="none" transform="matrix(1, 0, 0, 1, 0, 0)" width="8" x="184" y="152"/>
        <rect color="rgb(2, 8, 23)" fill="#a4bcfc" height="8" stroke="none" transform="matrix(1, 0, 0, 1, 0, 0)" width="8" x="64" y="160"/>
        <rect color="rgb(2, 8, 23)" fill="#a4bcfc" height="8" stroke="none" transform="matrix(1, 0, 0, 1, 0, 0)" width="8" x="80" y="160"/>
        <rect color="rgb(2, 8, 23)" fill="#a4bcfc" height="8" stroke="none" transform="matrix(1, 0, 0, 1, 0, 0)" width="8" x="96" y="160"/>
        <rect color="rgb(2, 8, 23)" fill="#a4bcfc" height="8" stroke="none" transform="matrix(1, 0, 0, 1, 0, 0)" width="8" x="104" y="160"/>
        <rect color="rgb(2, 8, 23)" fill="#a4bcfc" height="8" stroke="none" transform="matrix(1, 0, 0, 1, 0, 0)" width="8" x="120" y="160"/>
        <rect color="rgb(2, 8, 23)" fill="#a4bcfc" height="8" stroke="none" transform="matrix(1, 0, 0, 1, 0, 0)" width="8" x="128" y="160"/>
        <rect color="rgb(2, 8, 23)" fill="#a4bcfc" height="8" stroke="none" transform="matrix(1, 0, 0, 1, 0, 0)" width="8" x="136" y="160"/>
        <rect color="rgb(2, 8, 23)" fill="#a4bcfc" height="8" stroke="none" transform="matrix(1, 0, 0, 1, 0, 0)" width="8" x="144" y="160"/>
        <rect color="rgb(2, 8, 23)" fill="#a4bcfc" height="8" stroke="none" transform="matrix(1, 0, 0, 1, 0, 0)" width="8" x="152" y="160"/>
        <rect color="rgb(2, 8, 23)" fill="#a4bcfc" height="8" stroke="none" transform="matrix(1, 0, 0, 1, 0, 0)" width="8" x="160" y="160"/>
        <rect color="rgb(2, 8, 23)" fill="#a4bcfc" height="8" stroke="none" transform="matrix(1, 0, 0, 1, 0, 0)" width="8" x="184" y="160"/>
        <rect color="rgb(2, 8, 23)" fill="#a4bcfc" height="8" stroke="none" transform="matrix(1, 0, 0, 1, 0, 0)" width="8" x="72" y="168"/>
        <rect color="rgb(2, 8, 23)" fill="#a4bcfc" height="8" stroke="none" transform="matrix(1, 0, 0, 1, 0, 0)" width="8" x="80" y="168"/>
        <rect color="rgb(2, 8, 23)" fill="#a4bcfc" height="8" stroke="none" transform="matrix(1, 0, 0, 1, 0, 0)" width="8" x="104" y="168"/>
        <rect color="rgb(2, 8, 23)" fill="#a4bcfc" height="8" stroke="none" transform="matrix(1, 0, 0, 1, 0, 0)" width="8" x="120" y="168"/>
        <rect color="rgb(2, 8, 23)" fill="#a4bcfc" height="8" stroke="none" transform="matrix(1, 0, 0, 1, 0, 0)" width="8" x="128" y="168"/>
        <rect color="rgb(2, 8, 23)" fill="#a4bcfc" height="8" stroke="none" transform="matrix(1, 0, 0, 1, 0, 0)" width="8" x="136" y="168"/>
        <rect color="rgb(2, 8, 23)" fill="#a4bcfc" height="8" stroke="none" transform="matrix(1, 0, 0, 1, 0, 0)" width="8" x="160" y="168"/>
        <rect color="rgb(2, 8, 23)" fill="#a4bcfc" height="8" stroke="none" transform="matrix(1, 0, 0, 1, 0, 0)" width="8" x="176" y="168"/>
        <rect color="rgb(2, 8, 23)" fill="#a4bcfc" height="8" stroke="none" transform="matrix(1, 0, 0, 1, 0, 0)" width="8" x="184" y="168"/>
        <rect color="rgb(2, 8, 23)" fill="#a4bcfc" height="8" stroke="none" transform="matrix(1, 0, 0, 1, 0, 0)" width="8" x="64" y="176"/>
        <rect color="rgb(2, 8, 23)" fill="#a4bcfc" height="8" stroke="none" transform="matrix(1, 0, 0, 1, 0, 0)" width="8" x="80" y="176"/>
        <rect color="rgb(2, 8, 23)" fill="#a4bcfc" height="8" stroke="none" transform="matrix(1, 0, 0, 1, 0, 0)" width="8" x="104" y="176"/>
        <rect color="rgb(2, 8, 23)" fill="#a4bcfc" height="8" stroke="none" transform="matrix(1, 0, 0, 1, 0, 0)" width="8" x="112" y="176"/>
        <rect color="rgb(2, 8, 23)" fill="#a4bcfc" height="8" stroke="none" transform="matrix(1, 0, 0, 1, 0, 0)" width="8" x="120" y="176"/>
        <rect color="rgb(2, 8, 23)" fill="#a4bcfc" height="8" stroke="none" transform="matrix(1, 0, 0, 1, 0, 0)" width="8" x="152" y="176"/>
        <rect color="rgb(2, 8, 23)" fill="#a4bcfc" height="8" stroke="none" transform="matrix(1, 0, 0, 1, 0, 0)" width="8" x="160" y="176"/>
        <rect color="rgb(2, 8, 23)" fill="#a4bcfc" height="8" stroke="none" transform="matrix(1, 0, 0, 1, 0, 0)" width="8" x="192" y="176"/>
        <rect color="rgb(2, 8, 23)" fill="#a4bcfc" height="8" stroke="none" transform="matrix(1, 0, 0, 1, 0, 0)" width="8" x="72" y="184"/>
        <rect color="rgb(2, 8, 23)" fill="#a4bcfc" height="8" stroke="none" transform="matrix(1, 0, 0, 1, 0, 0)" width="8" x="80" y="184"/>
        <rect color="rgb(2, 8, 23)" fill="#a4bcfc" height="8" stroke="none" transform="matrix(1, 0, 0, 1, 0, 0)" width="8" x="88" y="184"/>
        <rect color="rgb(2, 8, 23)" fill="#a4bcfc" height="8" stroke="none" transform="matrix(1, 0, 0, 1, 0, 0)" width="8" x="120" y="184"/>
        <rect color="rgb(2, 8, 23)" fill="#a4bcfc" height="8" stroke="none" transform="matrix(1, 0, 0, 1, 0, 0)" width="8" x="136" y="184"/>
        <rect color="rgb(2, 8, 23)" fill="#a4bcfc" height="8" stroke="none" transform="matrix(1, 0, 0, 1, 0, 0)" width="8" x="184" y="184"/>
        <rect color="rgb(2, 8, 23)" fill="#a4bcfc" height="8" stroke="none" transform="matrix(1, 0, 0, 1, 0, 0)" width="8" x="96" y="192"/>
        <rect color="rgb(2, 8, 23)" fill="#a4bcfc" height="8" stroke="none" transform="matrix(1, 0, 0, 1, 0, 0)" width="8" x="112" y="192"/>
        <rect color="rgb(2, 8, 23)" fill="#a4bcfc" height="8" stroke="none" transform="matrix(1, 0, 0, 1, 0, 0)" width="8" x="128" y="192"/>
        <rect color="rgb(2, 8, 23)" fill="#a4bcfc" height="8" stroke="none" transform="matrix(1, 0, 0, 1, 0, 0)" width="8" x="136" y="192"/>
        <rect color="rgb(2, 8, 23)" fill="#a4bcfc" height="8" stroke="none" transform="matrix(1, 0, 0, 1, 0, 0)" width="8" x="144" y="192"/>
        <rect color="rgb(2, 8, 23)" fill="#a4bcfc" height="8" stroke="none" transform="matrix(1, 0, 0, 1, 0, 0)" width="8" x="160" y="192"/>
        <rect color="rgb(2, 8, 23)" fill="#a4bcfc" height="8" stroke="none" transform="matrix(1, 0, 0, 1, 0, 0)" width="8" x="168" y="192"/>
        <rect color="rgb(2, 8, 23)" fill="#a4bcfc" height="8" stroke="none" transform="matrix(1, 0, 0, 1, 0, 0)" width="8" x="184" y="192"/>
        <rect color="rgb(2, 8, 23)" fill="#a4bcfc" height="8" stroke="none" transform="matrix(1, 0, 0, 1, 0, 0)" width="8" x="192" y="192"/>
      </clipPath>
      <clipPath id="svg1-clip-path-corners-square-color-0-0-57">
        <path clip-rule="evenodd" color="rgb(2, 8, 23)" d="M 0 0v 56h 56v -56zM 8 8h 40v 40h -40z" fill="#a4bcfc" stroke="none" transform="matrix(1, 0, 0, 1, 0, 0)"/>
      </clipPath>
      <clipPath id="svg1-clip-path-corners-dot-color-0-0-57">
        <rect color="rgb(2, 8, 23)" fill="#a4bcfc" height="24" stroke="none" transform="matrix(1, 0, 0, 1, 0, 0)" width="24" x="16" y="16"/>
      </clipPath>
      <clipPath id="svg1-clip-path-corners-square-color-1-0-57">
        <path clip-rule="evenodd" color="rgb(2, 8, 23)" d="M 144 0v 56h 56v -56zM 152 8h 40v 40h -40z" fill="#a4bcfc" stroke="none" transform="matrix(0, 1, -1, 0, 200, -144)"/>
      </clipPath>
      <clipPath id="svg1-clip-path-corners-dot-color-1-0-57">
        <rect color="rgb(2, 8, 23)" fill="#a4bcfc" height="24" stroke="none" transform="matrix(0, 1, -1, 0, 200, -144)" width="24" x="160" y="16"/>
      </clipPath>
      <clipPath id="svg1-clip-path-corners-square-color-0-1-57">
        <path clip-rule="evenodd" color="rgb(2, 8, 23)" d="M 0 144v 56h 56v -56zM 8 152h 40v 40h -40z" fill="#a4bcfc" stroke="none" transform="matrix(0, -1, 1, 0, -144, 200)"/>
      </clipPath>
      <clipPath id="svg1-clip-path-corners-dot-color-0-1-57">
        <rect color="rgb(2, 8, 23)" fill="#a4bcfc" height="24" stroke="none" transform="matrix(0, -1, 1, 0, -144, 200)" width="24" x="16" y="160"/>
      </clipPath>
    </defs>
    <rect clip-path="url(&quot;#svg1-clip-path-background-color-57&quot;)" color="rgb(2, 8, 23)" fill="rgba(0, 0, 0, 0)" height="200" stroke="none" width="200" x="0" y="0"/>
    <rect clip-path="url(&quot;#svg1-clip-path-dot-color-57&quot;)" color="rgb(2, 8, 23)" fill="#a4bcfc" height="200" stroke="none" width="200" x="0" y="0"/>
    <rect clip-path="url(&quot;#svg1-clip-path-corners-square-color-0-0-57&quot;)" color="rgb(2, 8, 23)" fill="#a4bcfc" height="56" stroke="none" width="56" x="0" y="0"/>
    <rect clip-path="url(&quot;#svg1-clip-path-corners-dot-color-0-0-57&quot;)" color="rgb(2, 8, 23)" fill="#a4bcfc" height="24" stroke="none" width="24" x="16" y="16"/>
    <rect clip-path="url(&quot;#svg1-clip-path-corners-square-color-1-0-57&quot;)" color="rgb(2, 8, 23)" fill="#a4bcfc" height="56" stroke="none" width="56" x="144" y="0"/>
    <rect clip-path="url(&quot;#svg1-clip-path-corners-dot-color-1-0-57&quot;)" color="rgb(2, 8, 23)" fill="#a4bcfc" height="24" stroke="none" width="24" x="160" y="16"/>
    <rect clip-path="url(&quot;#svg1-clip-path-corners-square-color-0-1-57&quot;)" color="rgb(2, 8, 23)" fill="#a4bcfc" height="56" stroke="none" width="56" x="0" y="144"/>
    <rect clip-path="url(&quot;#svg1-clip-path-corners-dot-color-0-1-57&quot;)" color="rgb(2, 8, 23)" fill="#a4bcfc" height="24" stroke="none" width="24" x="16" y="160"/>
  </g>
  <!-- Map Layer -->
  <g transform="translate(-25, 100) scale(1)">
    <!-- Map Outline -->
    <path d="M230,70 C250,55 270,60 290,50 C310,40 330,30 350,40 C370,50 390,60 410,50              C430,40 450,30 470,40 C490,50 510,60 500,80 C490,100 470,120 450,140              C430,160 410,170 390,180 C370,190 350,180 330,190 C310,200 290,210 270,200              C250,190 230,180 210,190 C190,200 170,210 150,200 C130,190 110,180 90,190              C70,200 50,210 40,190 C30,170 50,160 70,170 C90,180 110,170 130,160              C150,150 170,160 190,150 C210,140 220,130 230,70" fill="#4CAF50" stroke="#2E7D32" stroke-linecap="round" stroke-width="8"/>
    <!-- Blue Rivers -->
    <path d="M247,107 C270,100 290,110 300,105 C310,100 320,110 330,105" fill="none" stroke="#1976D2" stroke-linecap="round" stroke-width="4"/>
    <path d="M330,105 C340,115 350,110 360,120 C370,130 380,125 390,135" fill="none" stroke="#1976D2" stroke-linecap="round" stroke-width="4"/>
    <path d="M245,65 C240,140 250,135 260,145 C270,155 280,150 290,160" fill="none" stroke="#1976D2" stroke-linecap="round" stroke-width="4"/>
    <path d="M150,160 C160,170 170,165 180,175 C190,185 200,180 210,190" fill="none" stroke="#1976D2" stroke-linecap="round" stroke-width="4"/>
    <!-- Flag 1 - Red -->
    <g transform="translate(380, 70)">
      <line stroke="#424242" stroke-width="4" x1="0" x2="0" y1="0" y2="100"/>
      <rect fill="#F44336" height="36" width="50" x="0" y="0"/>
    </g>
    <!-- Flag 2 - Blue -->
    <g transform="translate(300, 30)">
      <line stroke="#424242" stroke-width="4" x1="0" x2="0" y1="0" y2="100"/>
      <rect fill="#2962ff" height="36" width="50" x="0" y="0"/>
    </g>
    <!-- Flag 3 - Green -->
    <g transform="translate(130, 80)">
      <line stroke="#424242" stroke-width="4" x1="0" x2="0" y1="0" y2="100"/>
      <rect fill="#4CAF50" height="36" width="50" x="0" y="0"/>
    </g>
  </g>
</svg>